<?xml version="1.0" encoding="UTF-8" standalone="no"?>
<?xml-stylesheet type="text/css" href="style.css"?>
<!-- Created with Inkscape (http://www.inkscape.org/) -->

<svg
   xmlns:dc="http://purl.org/dc/elements/1.1/"
   xmlns:cc="http://creativecommons.org/ns#"
   xmlns:rdf="http://www.w3.org/1999/02/22-rdf-syntax-ns#"
   xmlns:svg="http://www.w3.org/2000/svg"
   xmlns="http://www.w3.org/2000/svg"
   xmlns:sodipodi="http://sodipodi.sourceforge.net/DTD/sodipodi-0.dtd"
   xmlns:inkscape="http://www.inkscape.org/namespaces/inkscape"
   width="103.65054mm"
   height="132.42747mm"
   viewBox="0 0 103.65053 132.42747"
   version="1.1"
   id="svg4501"
   inkscape:version="0.92.1 r15371"
   sodipodi:docname="map_med_solo.svg">
  <defs
     id="defs4495">
    <style
       id="style6"
       type="text/css">
   
    .str4 {stroke:black;stroke-width:0.35}
    .str3 {stroke:black;stroke-width:0.35;stroke-linejoin:bevel}
    .str1 {stroke:#666666;stroke-width:0.4}
    .str2 {stroke:blue;stroke-width:1.4;stroke-linejoin:bevel}
    .str0 {stroke:#CCCCCC;stroke-width:2;stroke-linejoin:bevel}
    .fil0 {fill:none}
    .fil20 {fill:black}
    .fil9 {fill:#0083DB}
    .fil10 {fill:#008AE6}
    .fil11 {fill:#0096FA}
    .fil4 {fill:#669933}
    .fil5 {fill:#72AB39}
    .fil6 {fill:#7BB83D}
    .fil7 {fill:#86C944}
    .fil12 {fill:#999933}
    .fil13 {fill:#B0B03B}
    .fil18 {fill:#B2B2B2}
    .fil15 {fill:#BA8C2F}
    .fil14 {fill:#CC9933}
    .fil16 {fill:#DBA538}
    .fil17 {fill:#E5E5E5}
    .fil8 {fill:#EAC102}
    .fil3 {fill:#ED8E2F}
    .fil2 {fill:#FF9933}
    .fil1 {fill:#FFAC65}
    .fil19 {fill:black;fill-rule:nonzero}
   
  </style>
    <style
       id="style6-6"
       type="text/css">
   
    .str3 {stroke:black;stroke-width:0.25}
    .str2 {stroke:#333333;stroke-width:0.25;stroke-linejoin:bevel}
    .str4 {stroke:#4C4C4C;stroke-width:0.25;stroke-linejoin:bevel}
    .str1 {stroke:#7F7F7F;stroke-width:0.35;stroke-linejoin:bevel}
    .str5 {stroke:#0066CC;stroke-width:1;stroke-linejoin:bevel}
    .str0 {stroke:#D9D9D9;stroke-width:2.5;stroke-linejoin:bevel}
    .fil0 {fill:none}
    .fil9 {fill:black}
    .fil6 {fill:#0083DB}
    .fil2 {fill:#009952}
    .fil5 {fill:#669933}
    .fil8 {fill:#B2B2B2}
    .fil3 {fill:#CCCCCC}
    .fil7 {fill:#EAC102}
    .fil4 {fill:#FF9933}
    .fil1 {fill:black;fill-rule:nonzero}
   
  </style>
  </defs>
  <sodipodi:namedview
     id="base"
     pagecolor="#ffffff"
     bordercolor="#666666"
     borderopacity="1.0"
     inkscape:pageopacity="0.0"
     inkscape:pageshadow="2"
     inkscape:zoom="0.90509668"
     inkscape:cx="117.56293"
     inkscape:cy="306.00461"
     inkscape:document-units="mm"
     inkscape:current-layer="layer1"
     showgrid="false"
     inkscape:pagecheckerboard="true"
     inkscape:window-width="1366"
     inkscape:window-height="705"
     inkscape:window-x="-8"
     inkscape:window-y="-8"
     inkscape:window-maximized="1"
     showborder="false"
     fit-margin-top="0"
     fit-margin-left="0"
     fit-margin-right="0"
     fit-margin-bottom="0" />
  <metadata
     id="metadata4498">
    <rdf:RDF>
      <cc:Work
         rdf:about="">
        <dc:format>image/svg+xml</dc:format>
        <dc:type
           rdf:resource="http://purl.org/dc/dcmitype/StillImage" />
        <dc:title></dc:title>
      </cc:Work>
    </rdf:RDF>
  </metadata>
  <g
     inkscape:label="Layer 1"
     inkscape:groupmode="layer"
     id="layer1"
     transform="translate(-421.2866,93.116013)"
     style="display:inline">
    <g
       style="clip-rule:evenodd;fill-rule:evenodd;image-rendering:optimizeQuality;shape-rendering:geometricPrecision;text-rendering:geometricPrecision"
       id="relleno"
       transform="translate(-80.310204,32.449584)">
      <metadata
         id="CorelCorpID_1Corel-Layer" />
    </g>
    <g
       style="clip-rule:evenodd;fill-rule:evenodd;image-rendering:optimizeQuality;shape-rendering:geometricPrecision;text-rendering:geometricPrecision"
       transform="matrix(0,0.61218929,-0.61218929,0,531.08152,-110.58544)"
       id="g5967">
      <path
         style="clip-rule:evenodd;fill:#ffac65;fill-rule:evenodd;stroke:#666666;stroke-width:0.40000001;stroke-linejoin:bevel;image-rendering:optimizeQuality;shape-rendering:geometricPrecision;text-rendering:geometricPrecision"
         d="m 156.323,24.5727 1.704,-0.8476 0.608,-1.7743 1.019,-1.3351 -0.459,-1.2634 v -1.6367 l -0.818,-2.1248 0.574,-1.7594 0.904,-0.8076 0.291,-2.8555 -1.11,2.5222 -1.443,1.4592 -0.683,-1.4592 -0.656,-0.7438 -1.36,-1.7136 -1.748,0.3383 -1.634,-0.2212 -0.536,1.0358 -0.518,0.1036 -0.113,1.0273 -1.59,1.6461 -1.157,0.1689 -2.85,2.0426 -0.907,0.078 -0.064,3.9306 0.907,1.0255 0.728,1.3664 1.411,1.2981 -0.143,1.4758 0.283,1.4465 -1.175,0.9183 -0.533,0.7288 -0.87,0.1777 0.061,0.5067 -0.723,0.454 -1.091,-0.1786 -1.022,0.3667 -2.526,3.3103 -0.952,0.3695 -1.491,1.204 -1.649,-1.3253 -0.802,0.2621 -1.354,-0.4515 -2.243,-2.5287 -1.174,-0.2463 -0.53,-0.8907 -0.091,-1.7536 -0.338,-0.1962 -2.254,2.727 -1.176,0.0838 -1.41,0.2959 -1.052,1.2346 -1.397,0.2905 -0.777,0.5408 -0.967,-0.1097 -0.45,-0.663 0.071,-0.6356 -0.851,-1.4557 -0.942,-1.0056 v 1.3456 l 0.321,0.7571 -0.708,0.9509 -0.169,2.106 -0.39,1.4071 -0.448,0.6209 -0.904,-0.1181 -0.742,0.9601 -1.811,0.1881 -0.738,0.6704 h -1.423 l -0.402,3.4438 -1.009,1.6853 0.272,1.6414 1.453,0.3975 v 1.8509 l -0.816,1.1306 -1.122,2.0266 -0.196,1.6759 1.509,2.2207 1.342,2.9532 0.079,0.5753 -0.193,0.8153 -0.501,0.7013 -0.807,1.7171 0.776,0.3198 8.194,5.5379 6.608,-9.4051 1.166,0.3831 0.632,-0.3344 h 0.542 l 0.298,-0.1445 h 0.442 l 0.3,-1.3655 1.999,0.6825 2.98,1.818 0.514,0.8213 3.181,-2.8143 1.461,-0.7536 0.487,-2.1859 0.181,-1.6767 v -2.7868 l 1.087,-1.7672 0.19,-0.8943 2.335,-1.4022 0.483,-2.5466 1.031,-0.693 0.953,0.3036 2.474,-1.5823 0.665,-2.0867 0.74,-1.108 2.363,-1.4624 0.018,-0.9912 2.402,-1.7369 1.688,-0.7425 -0.722,-0.8669 0.23,-1.0619 1.348,-2.7263 -0.789,-1.2053 z"
         id="8"
         inkscape:connector-curvature="0"
         inkscape:label="#polygon34" />
      <path
         style="clip-rule:evenodd;fill:#ff9933;fill-rule:evenodd;stroke:#666666;stroke-width:0.40000001;stroke-linejoin:bevel;image-rendering:optimizeQuality;shape-rendering:geometricPrecision;text-rendering:geometricPrecision"
         d="m 167.027,38.3202 0.495,-0.645 v -1.2104 l -0.575,-1.152 0.709,-0.9849 -0.055,-0.8125 -0.687,-0.1148 -0.818,0.857 -0.673,0.2355 -0.946,-0.2367 -1.152,-0.9727 -1.236,-0.4305 1.353,-1.6023 V 30.259 l -0.743,-1.1064 0.248,-1.1636 -1.146,-1.7427 v -1.289 l 0.69,-1.1494 -0.124,-0.6111 0.343,-0.5539 -0.248,-0.8116 1.069,-0.1197 0.582,-0.5628 -0.35,-1.3933 -0.596,-0.4623 -0.703,-0.8476 0.351,-0.6287 0.587,-0.435 0.107,-0.5017 -0.774,-0.4961 0.144,-0.9279 0.646,-0.3986 -0.131,-0.3842 -0.795,-0.1536 -0.977,0.1955 -1.027,0.4195 -0.465,-0.7696 0.243,-1.7215 -0.227,-2.4754 -0.291,2.8555 -0.904,0.8076 -0.574,1.7594 0.818,2.1248 v 1.6367 l 0.459,1.2634 -1.019,1.3351 -0.608,1.7743 -1.704,0.8476 -0.214,1.7016 0.789,1.2053 -1.348,2.7263 -0.23,1.0619 0.722,0.8669 -1.688,0.7425 -2.402,1.7369 -0.018,0.9912 -2.363,1.4624 -0.74,1.108 -0.665,2.0867 -2.474,1.5823 -0.953,-0.3036 -1.031,0.693 -0.483,2.5466 -2.335,1.4022 -0.19,0.8943 -1.087,1.7672 v 2.7868 l -0.181,1.6767 -0.487,2.1859 -1.461,0.7536 -3.181,2.8143 1.501,0.4967 -0.432,0.4457 1.579,1.6055 -0.167,0.3819 1.414,0.6724 1.094,1.7432 1.572,1.8475 -0.666,0.874 -0.116,1.4845 1.177,1.7258 1.713,1.4718 2.895,-1.8107 2.82,0.1039 1.87,1.3828 1.3,0.2237 1.498,1.395 -0.691,1.3824 1.483,2.3379 3.442,-2.6713 2.168,1.5107 2.574,0.1349 0.883,-1.0925 1.043,-0.8997 1.513,-0.8902 1.591,0.9712 0.855,-0.3262 1.31,-0.1822 4.316,0.8508 1.215,1.2859 1.778,-0.5813 0.898,0.0948 0.603,-0.8977 v -1.2227 l 0.557,-0.4876 1.4,-0.0653 1.939,-1.9879 1.799,-8.2805 -0.485,-0.6731 h -0.969 l -1.288,0.7703 -2.558,-3.5876 -1.025,-0.5482 -0.778,0.8102 -0.342,1.4432 -0.451,1.1004 -2.019,2.1467 -2.114,2.6162 -0.993,0.2961 -0.614,-0.6051 0.184,-0.9197 -0.725,-0.5622 -1.51,-0.1843 -2.308,-0.0896 -0.67,-0.6652 v -1.8522 l 0.185,-2.3063 -2.791,-0.5759 1.376,-1.0747 -0.677,-2.86 0.406,-0.6182 v -0.8306 l 1.293,-1.0239 -2.896,-0.6955 -1.926,-1.0045 -0.402,-1.8793 0.649,-1.2599 2.447,0.2878 h 2.703 v -1.6539 l 0.661,-0.4993 v -3.78 l 0.633,-1.938 z"
         id="9"
         inkscape:connector-curvature="0"
         inkscape:label="#polygon36" />
      <path
         style="clip-rule:evenodd;fill:#ed8e2f;fill-rule:evenodd;stroke:#666666;stroke-width:0.40000001;stroke-linejoin:bevel;image-rendering:optimizeQuality;shape-rendering:geometricPrecision;text-rendering:geometricPrecision"
         d="m 128.51,57.1054 h -0.442 l -0.298,0.1445 h -0.542 l -0.632,0.3344 -1.166,-0.3831 -6.608,9.4051 -8.194,-5.5379 -0.776,-0.3198 0.807,-1.7171 -1.883,2.0771 -0.143,1.6325 -1.286,-1.0712 -1.359,8.187 0.173,2.1469 -1.985,12.2038 2.889,0.5844 4.569,1.8493 18.565,10.2016 1.063,0.2577 1.193,-0.29 19.408,-6.9136 1.076,-0.2651 1.679,-0.1558 2.91,-0.1002 0.993,-2.4129 2.995,-4.0163 1.947,-2.6807 1.806,-0.3794 v -1.0489 l 1.048,-0.3124 v -0.982 l 0.41,-1.4553 h 0.83 l 0.659,-0.9098 v -1.6156 l -0.855,0.3262 -1.591,-0.9712 -1.513,0.8902 -1.043,0.8997 -0.883,1.0925 -2.574,-0.1349 -2.168,-1.5107 -3.442,2.6713 -1.483,-2.3379 0.691,-1.3824 -1.498,-1.395 -1.3,-0.2237 -1.87,-1.3828 -2.82,-0.1039 -2.895,1.8107 -1.713,-1.4718 -1.177,-1.7258 0.116,-1.4845 0.666,-0.874 -1.572,-1.8475 -1.094,-1.7432 -1.414,-0.6724 0.167,-0.3819 -1.579,-1.6055 0.432,-0.4457 -1.501,-0.4967 -0.514,-0.8213 -2.98,-1.818 -1.999,-0.6825 z"
         id="10"
         inkscape:connector-curvature="0"
         inkscape:label="#polygon38" />
      <path
         style="clip-rule:evenodd;fill:#669933;fill-rule:evenodd;stroke:#666666;stroke-width:0.40000001;stroke-linejoin:bevel;image-rendering:optimizeQuality;shape-rendering:geometricPrecision;text-rendering:geometricPrecision"
         d="m 66.5633,59.0894 -0.2236,2.6061 0.3018,1.1857 -0.5588,2.1923 -2.3409,1.0235 -0.6092,1.3433 0.221,0.9557 -0.8903,1.9196 0.3619,0.0846 0.7273,0.321 0.8051,0.6918 0.8052,1.0017 0.9108,0.8683 0.8489,0.4394 0.912,0.1305 2.564,0.3667 1.3045,0.342 0.5674,0.3129 0.5589,0.5382 0.5819,0.652 0.9975,1.2693 0.4068,0.4743 0.536,0.2755 0.5746,0.1534 3.0277,0.1034 0.7397,0.1211 0.592,0.1701 23.8905,5.5758 1.985,-12.2038 -0.173,-2.1469 1.359,-8.187 1.286,1.0712 0.143,-1.6325 1.883,-2.0771 -1.793,-0.595 -1.645,-0.099 -4.277,-0.3933 L 95.556,56.84 82.5007,54.4834 79.668,53.919 l -1.6452,-0.0729 -0.9491,0.3688 -5.2118,-0.2458 -0.7148,-0.3657 -1.1071,0.8343 -0.1837,1.598 -2.9977,2.7798 z"
         id="4"
         inkscape:connector-curvature="0"
         inkscape:label="#polygon40" />
      <path
         style="clip-rule:evenodd;fill:#72ab39;fill-rule:evenodd;stroke:#666666;stroke-width:0.40000001;stroke-linejoin:bevel;image-rendering:optimizeQuality;shape-rendering:geometricPrecision;text-rendering:geometricPrecision"
         d="m 42.4883,46.4003 0.4053,-0.062 0.8274,-1.3462 -1.3192,-1.052 0.729,-3.3286 -1.0049,-0.3708 -0.0409,1.0661 -1.4747,1.4379 -0.584,0.3524 0.3511,0.527 -0.0278,1.2955 -0.7706,1.4654 -0.1388,1.3633 -1.2096,1.0356 0.369,0.8949 -0.7658,2.5061 -0.7313,2.7738 -0.8393,2.1999 -2.3425,2.3917 -0.6378,0.5703 -0.368,0.1776 0.309,0.2392 0.7054,0.4348 0.6922,0.0462 1.4305,-0.4041 3.2496,0.0894 2.8629,-0.368 1.7306,-0.0119 1.675,0.4766 3.1207,1.3532 1.5888,0.3742 2.7805,1.4731 1.1214,0.4836 1.4032,0.273 0.7749,0.3441 0.709,0.7816 0.7399,0.9873 0.6777,1.3273 0.3271,0.6386 0.4662,0.4757 0.5942,0.3476 0.8237,0.2429 1.7659,0.413 0.8903,-1.9196 -0.221,-0.9557 0.6092,-1.3433 2.3409,-1.0235 0.5588,-2.1923 -0.3018,-1.1857 0.2236,-2.6061 0.2953,-0.2739 -0.8421,-1.3579 -0.6144,-2.5403 -2.4414,-1.4562 -0.7206,-4.1222 -0.8731,-0.3095 -0.291,0.8738 -1.4733,0.4369 -1.5461,-0.9102 0.0154,-0.6441 -0.7095,-0.8376 -0.6732,0.5827 -0.5277,1.7479 -1.5495,0.6978 -6.2654,-3.2899 -2.2005,-0.2906 -1.0019,0.3988 -1.519,-0.8313 -1.137,0.1014 z"
         id="2"
         inkscape:connector-curvature="0"
         inkscape:label="#polygon42" />
      <path
         style="clip-rule:evenodd;fill:#7bb83d;fill-rule:evenodd;stroke:#666666;stroke-width:0.40000001;stroke-linejoin:bevel;image-rendering:optimizeQuality;shape-rendering:geometricPrecision;text-rendering:geometricPrecision"
         d="m 101.718,27.8451 v -1.7709 l -0.838,0.7309 -1.0506,0.2182 -0.8788,0.9233 -0.7659,0.1185 -2.7009,-2.8991 -1.3586,2.1117 -0.9232,0.7699 -1.5386,0.946 -2.0261,-0.7583 -1.3665,-2.2189 -0.2687,0.1456 -0.7511,1.6364 -0.7579,0.214 -1.0859,-0.6753 -0.835,0.5821 -1.2006,0.2256 -0.7859,0.6359 h -0.7358 l -0.301,1.205 0.4849,1.6234 -0.1222,1.0467 -1.7988,-0.3923 -1.0118,0.2444 -1.7551,-1.3076 0.0636,-1.7108 -2.4713,-0.2742 -1.737,-1.0124 -1.0463,1.5477 -0.8786,0.4885 0.1596,3.3071 -0.6433,1.513 v 2.9454 l 1.1131,1.7693 -0.3217,1.2557 1.5923,3.7801 -0.6863,1.6514 0.4789,3.3676 -1.8218,3.7747 0.7148,0.3657 5.2118,0.2458 0.9491,-0.3688 1.6452,0.0729 2.8327,0.5644 13.0553,2.3566 7.388,1.1042 4.277,0.3933 1.645,0.099 1.793,0.595 0.501,-0.7013 0.193,-0.8153 -0.079,-0.5753 -1.342,-2.9532 -1.509,-2.2207 0.196,-1.6759 1.122,-2.0266 0.816,-1.1306 v -1.8509 l -1.453,-0.3975 -0.272,-1.6414 1.009,-1.6853 0.402,-3.4438 -0.436,-1.8171 -0.347,-0.6515 0.284,-1.4081 -0.367,-1.3796 -2.354,-0.8136 -1.572,0.3932 -1.702,-0.0971 -1.167,-0.3922 -0.519,-1.0072 -0.05,-0.9699 -0.667,-0.8079 z"
         id="3"
         inkscape:connector-curvature="0"
         inkscape:label="#polygon44" />
      <path
         style="clip-rule:evenodd;fill:#86c944;fill-rule:evenodd;stroke:#666666;stroke-width:0.40000001;stroke-linejoin:bevel;image-rendering:optimizeQuality;shape-rendering:geometricPrecision;text-rendering:geometricPrecision"
         d="m 58.3338,27.9119 -0.575,1.2853 -1.9156,-1.0044 -0.9199,-0.8673 -2.5265,0.1743 -1.3244,1.2902 -3.5066,1.8324 0.2478,0.8998 -1.8509,1.3404 -1.077,1.3089 -0.6539,2.0595 -0.7447,0.7744 -0.882,0.5487 0.3695,1.3361 -0.8487,1.3505 1.0049,0.3708 -0.729,3.3286 1.3192,1.052 -0.8274,1.3462 -0.4053,0.062 v 0.6647 l 1.137,-0.1014 1.519,0.8313 1.0019,-0.3988 2.2005,0.2906 6.2654,3.2899 1.5495,-0.6978 0.5277,-1.7479 0.6732,-0.5827 0.7095,0.8376 -0.0154,0.6441 1.5461,0.9102 1.4733,-0.4369 0.291,-0.8738 0.8731,0.3095 0.7206,4.1222 2.4414,1.4562 0.6144,2.5403 0.8421,1.3579 2.9977,-2.7798 0.1837,-1.598 1.1071,-0.8343 1.8218,-3.7747 -0.4789,-3.3676 0.6863,-1.6514 -1.5923,-3.7801 0.3217,-1.2557 -1.1131,-1.7693 v -2.9454 l 0.6433,-1.513 -0.1596,-3.3071 0.8786,-0.4885 1.0463,-1.5477 -1.3583,-0.9694 -4.7543,0.1844 -0.6278,1.0937 -1.3037,-0.9871 -0.8587,0.228 -0.8587,0.7542 -1.0164,-0.9647 -1.7738,0.4885 -1.292,-0.8051 z"
         id="1"
         inkscape:connector-curvature="0"
         inkscape:label="#polygon46" />
      <path
         style="clip-rule:evenodd;fill:#eac102;fill-rule:evenodd;stroke:#666666;stroke-width:0.40000001;stroke-linejoin:bevel;image-rendering:optimizeQuality;shape-rendering:geometricPrecision;text-rendering:geometricPrecision"
         d="m 165.269,79.8866 -1.806,0.3794 -1.947,2.6807 -2.995,4.0163 -0.993,2.4129 49.597,6.7989 9.935,3.203 6.325,1.7072 1.495,0.521 0.746,-0.813 v -0.755 l 1.936,-2.4806 2.751,-0.7024 1.425,-0.1432 1.038,-1.0326 2.375,-3.7427 v -1.4723 l 1.192,-0.9565 2.681,-4.1716 0.613,-2.0159 -0.278,-1.9493 0.737,-1.0376 -0.084,-0.9029 1.294,-1.5192 1.356,-0.909 0.653,-1.5993 0.709,-0.79 -0.355,-1.4672 0.999,-1.8542 -0.731,-1.8384 v -1.8686 l 0.421,-1.9587 -0.95,-0.5374 -0.6,-0.6177 -0.412,-0.8651 -0.922,-0.182 -1.189,0.2063 h -0.992 l -0.699,-0.3969 -0.981,0.3591 -1.242,0.2048 -0.628,-0.575 -0.267,-1.1365 0.656,-0.7998 0.255,-0.8136 0.168,-2.2219 -0.941,-0.2588 -1.045,0.3595 -1.497,-0.1466 -0.287,1.0625 -0.599,1.028 -3.094,-0.2278 0.457,-0.8754 -1.429,-1.2368 -0.817,-1.3696 -0.666,-0.5178 -0.69,-0.8485 -0.808,-0.3897 -0.79,0.6507 -1.037,0.1396 -1.047,0.3328 -0.802,0.3294 -0.905,-0.5146 -0.817,0.3796 -0.881,0.5436 -0.751,-0.6013 -1,-0.1896 -1.159,-0.3449 -0.977,-0.6371 -1.623,-0.1604 -1.42,-1.7494 -1.064,0.3803 -1.048,-0.5245 -1.278,-0.1034 -1.018,-0.5727 h -0.783 l -0.7,0.2663 -0.569,-0.4497 -1.39,-0.4305 -0.361,-0.82 -0.516,-0.5271 -0.525,0.0691 -0.72,0.4006 -1.109,-0.1654 -0.491,-0.9221 -0.226,-1.3404 -0.741,-0.8132 -0.804,-0.2994 h -1.513 l -1.829,-0.1075 -1.14,-0.4543 -2.049,-0.5076 -0.74,-0.6064 -1.245,0.2526 -0.877,-0.2669 -0.804,0.8169 -1.025,-0.769 -1.038,-0.2329 -2.553,-0.2539 1.23,2.2425 0.194,2.1284 -0.261,2.3309 -1.614,-0.092 -1.748,1.9793 -1.59,1.5921 -0.657,1.1543 -1.622,1.6884 1.025,0.5482 2.558,3.5876 1.288,-0.7703 h 0.969 l 0.485,0.6731 -1.799,8.2805 -1.939,1.9879 -1.4,0.0653 -0.557,0.4876 v 1.2227 l -0.603,0.8977 -0.898,-0.0948 -1.778,0.5813 -1.215,-1.2859 -4.316,-0.8508 -1.31,0.1822 v 1.6156 l -0.659,0.9098 h -0.83 l -0.41,1.4553 v 0.982 l -1.048,0.3124 z"
         id="14"
         inkscape:connector-curvature="0"
         inkscape:label="#polygon48" />
      <path
         style="clip-rule:evenodd;fill:#0083db;fill-rule:evenodd;stroke:#666666;stroke-width:0.40000001;stroke-linejoin:bevel;image-rendering:optimizeQuality;shape-rendering:geometricPrecision;text-rendering:geometricPrecision"
         d="m 102.453,111.068 -1.545,2.234 -2.7233,2.637 -1.6589,1.507 -1.6379,0.781 -1.097,0.996 1.1244,1.354 24.6357,5.528 1.612,0.705 -0.642,-1.775 0.102,-0.489 -0.386,-1.721 7.616,0.674 0.108,4.503 -0.722,1.792 -0.079,2.337 11.614,0.747 -1.519,6.447 1.006,0.942 2.582,0.636 -0.91,5.287 -0.119,2.741 1.416,1.42 v 2.287 l 0.396,1.611 v 2.718 l 0.381,-1.782 0.26,-0.507 -0.208,-0.893 0.174,-0.424 0.69,-0.678 0.134,-0.485 -0.064,-0.334 -0.324,-0.518 0.171,-0.518 0.335,-0.558 1.738,-2.42 2.618,-1.008 0.208,-4.541 -0.038,-2.304 -0.108,-6.582 -0.269,-5.12 -1.727,0.666 -1.201,-35.3556 -11.941,4.2535 -1.199,0.2267 -1.057,-0.1944 -17.393,-9.5578 0.988,3.6281 0.219,1.5428 -0.106,2.5636 -0.458,2.0041 -0.507,1.8895 -1.641,2.2465 -1.26,2.225 -1.612,0.594 -1.29,1.543 -1.69,0.443 -0.859,0.738 -0.985,1.248 z"
         id="11"
         inkscape:connector-curvature="0"
         inkscape:label="#polygon50" />
      <path
         style="clip-rule:evenodd;fill:#008ae6;fill-rule:evenodd;stroke:#666666;stroke-width:0.40000001;stroke-linejoin:bevel;image-rendering:optimizeQuality;shape-rendering:geometricPrecision;text-rendering:geometricPrecision"
         d="m 97.3994,126.592 0.3153,0.421 -1.0987,0.249 -0.7166,0.468 -0.64,1.257 1.1114,0.326 0.2968,-0.859 0.2578,0.468 1.3991,-0.075 -0.4251,1.18 -0.1562,1.9 1.1302,2.033 0.1681,1.329 0.6701,-0.535 1.3044,1.136 h 1.038 l -1.289,1.727 2.325,-0.937 1.135,-0.838 1.574,0.516 0.737,-0.485 1.737,0.241 -0.065,-4.316 -1.681,-0.91 0.515,-0.806 6.521,-0.843 -2.091,2.419 1.177,2.688 0.181,1.121 1.748,3.961 -0.072,1.294 0.447,1.844 0.231,2.427 -0.121,1.037 3.593,2.38 -0.474,0.989 0.625,0.864 0.495,-0.658 0.585,1.012 2.041,2.601 0.529,2.974 1.827,1.395 0.569,0.059 0.36,-0.54 -0.142,-0.718 -1.632,-1.211 -0.149,-1.331 0.581,-0.628 1.013,-0.602 1.077,-1.718 1.027,0.003 2.54,2.917 1.82,0.29 1.046,-0.983 2.353,2.079 0.95,-1.228 1.972,-0.681 2.204,-0.443 v 1.56 l 1.398,1.303 0.355,1.252 v -2.718 l -0.396,-1.611 v -2.287 l -1.416,-1.42 0.119,-2.741 0.91,-5.287 -2.582,-0.636 -1.006,-0.942 1.519,-6.447 -11.614,-0.747 0.079,-2.337 0.722,-1.792 -0.108,-4.503 -7.616,-0.674 0.386,1.721 -0.102,0.489 0.642,1.775 -1.612,-0.705 -24.6357,-5.528 -1.7345,0.678 0.1966,1.228 0.4891,0.029 -0.1011,0.938 0.3665,1.239 2.3503,0.603 -0.5637,0.813 z"
         id="12"
         inkscape:connector-curvature="0"
         inkscape:label="#polygon52" />
      <path
         style="clip-rule:evenodd;fill:#0096fa;fill-rule:evenodd;stroke:#666666;stroke-width:0.40000001;stroke-linejoin:bevel;image-rendering:optimizeQuality;shape-rendering:geometricPrecision;text-rendering:geometricPrecision"
         d="m 106.527,130.888 1.681,0.91 0.065,4.316 -1.737,-0.241 -0.737,0.485 -1.574,-0.516 -1.135,0.838 -2.325,0.937 1.289,-1.727 h -1.038 l -1.3044,-1.136 -0.6701,0.535 -0.1681,-1.329 -1.1302,-2.033 0.1562,-1.9 0.4251,-1.18 -1.3991,0.075 -0.2578,-0.468 -0.2968,0.859 -1.1114,-0.326 0.64,-1.257 0.7166,-0.468 1.0987,-0.249 -0.3153,-0.421 -1.4809,-0.487 0.5637,-0.813 -2.3503,-0.603 -0.3665,-1.239 0.1011,-0.938 -0.4891,-0.029 -0.1966,-1.228 1.7345,-0.678 -1.1244,-1.354 -1.6134,1.891 v 2.138 l -1.2448,1.274 -0.4091,2.062 -1.2562,0.869 -0.1487,2.264 -1.8515,3.645 1.1034,0.638 v 0.716 l -2.1602,3.468 0.3574,1.306 -0.4872,1.358 4.0262,0.203 2.7617,1.238 -0.4198,3.229 2.5686,4.213 -0.3417,3.326 0.5746,0.699 0.1364,1.426 0.4676,-0.624 0.7301,-0.364 0.2587,0.801 h 0.7409 l 1.4807,-0.579 1.8644,-1.039 1.481,-0.558 1.033,-0.991 0.862,-0.351 h 1.75 l 0.299,-0.239 0.749,-0.12 0.576,-0.255 h 0.762 l 0.232,0.277 h 0.268 l 0.21,-0.223 0.304,-0.149 0.83,0.388 1.563,0.376 0.428,0.36 0.072,0.472 -0.279,0.282 -0.96,0.394 -1.797,1.028 -0.43,0.374 0.087,0.337 0.175,0.409 -0.134,0.333 -0.245,0.172 -0.62,0.048 -0.167,0.717 -0.549,0.093 -0.266,0.256 0.139,0.45 0.102,0.58 -0.365,0.637 -0.416,0.303 -0.546,0.498 0.325,0.595 0.256,0.527 0.078,1.366 0.494,0.356 0.595,0.358 0.239,0.757 -0.865,1.525 0.222,0.252 0.397,-0.11 0.174,0.118 0.037,0.321 -0.057,0.729 0.065,0.18 0.282,-0.105 1.149,-0.991 0.498,-0.157 1.151,0.138 0.5,0.166 0.274,-0.156 0.952,-0.717 h 0.361 l 0.933,0.586 1.295,0.28 0.079,0.291 -1.654,2.422 -0.088,0.658 -0.221,0.419 -1.269,1.103 -1.394,0.942 -0.891,0.112 -0.437,0.525 -0.469,0.5 -0.659,0.302 -0.673,0.121 -1.061,0.416 -0.429,-0.345 -0.191,0.262 0.032,0.429 0.233,0.526 -0.062,0.49 -0.365,1.034 -0.117,0.456 0.072,0.479 0.389,0.168 0.353,-0.511 0.866,-1.396 0.404,-0.153 0.438,0.143 1.117,0.766 0.971,0.376 0.668,-0.204 0.488,0.067 1.522,1.576 1.392,1.877 h 0.353 l 1.002,-1.821 0.817,-0.206 0.609,-0.965 0.45,-1.193 0.754,-0.719 1.605,-0.606 0.419,0.281 -0.059,0.461 -0.34,0.48 -0.84,1.288 0.059,0.66 0.15,1.031 0.68,0.523 1.044,0.097 0.691,-0.107 0.994,-0.01 0.796,-0.272 0.808,-0.866 v -0.972 l 0.315,-1.19 1.086,-0.249 0.762,0.082 0.137,0.841 0.766,0.634 0.339,0.987 -0.56,1.43 2.124,-1.356 1.197,-1.887 v 1.288 l -0.837,1.498 1.196,-0.449 1.331,-0.847 0.96,-0.496 0.41,-0.68 0.126,-0.918 v -1.106 l 0.671,-0.159 0.37,-0.282 0.351,-0.558 0.085,-0.825 -0.282,-0.674 -0.494,-0.37 -0.645,-0.076 -0.196,-0.366 0.207,-1.233 0.338,-1.44 0.236,-1.389 v -1.084 l 0.379,-0.095 0.55,0.31 0.48,-0.367 0.504,-0.94 0.676,-0.517 1.005,0.718 0.392,-0.606 h 0.318 l 0.64,1.232 0.737,-0.496 0.738,-0.089 v -0.468 l -0.627,-1.006 0.516,-0.527 0.526,0.237 h 0.441 l 0.593,-0.684 0.069,-0.549 -0.085,-0.427 -0.729,-0.693 -0.666,-0.151 -0.07,-0.545 0.225,-0.393 0.353,-0.982 0.2,-1.353 -0.355,-1.252 -1.398,-1.303 v -1.56 l -2.204,0.443 -1.972,0.681 -0.95,1.228 -2.353,-2.079 -1.046,0.983 -1.82,-0.29 -2.54,-2.917 -1.027,-0.003 -1.077,1.718 -1.013,0.602 -0.581,0.628 0.149,1.331 1.632,1.211 0.142,0.718 -0.36,0.54 -0.569,-0.059 -1.827,-1.395 -0.529,-2.974 -2.041,-2.601 -0.585,-1.012 -0.495,0.658 -0.625,-0.864 0.474,-0.989 -3.593,-2.38 0.121,-1.037 -0.231,-2.427 -0.447,-1.844 0.072,-1.294 -1.748,-3.961 -0.181,-1.121 -1.177,-2.688 2.091,-2.419 -6.521,0.843 z"
         id="13"
         inkscape:connector-curvature="0"
         inkscape:label="#polygon54" />
      <path
         style="clip-rule:evenodd;fill:#999933;fill-rule:evenodd;stroke:#666666;stroke-width:0.40000001;stroke-linejoin:bevel;image-rendering:optimizeQuality;shape-rendering:geometricPrecision;text-rendering:geometricPrecision"
         d="m 190.112,119.662 1.141,0.088 -1.796,1.083 0.76,0.775 0.614,2.063 -0.468,1.068 0.601,0.462 1.163,-0.184 4.807,0.146 1.517,-0.936 1.062,0.978 0.222,1.687 2.015,-1.351 0.29,1.559 0.644,-0.416 0.972,1.294 3.204,-2.39 0.617,0.226 0.51,-0.701 0.293,-0.957 0.314,-0.899 0.291,-0.295 0.361,-0.149 0.48,-0.769 0.673,-0.904 0.62,-0.198 0.728,-0.086 1.277,0.321 0.577,-0.271 0.374,-0.878 0.326,-0.351 0.744,0.085 0.866,0.757 0.539,0.366 0.465,-0.226 0.263,-0.922 0.181,-1.131 0.255,-1.171 0.491,-1.907 -1.308,-0.931 -0.514,-1.715 -1.828,-3.831 -0.21,-0.963 1.776,-2.146 0.906,-5.559 -9.802,-3.1599 -49.597,-6.799 -0.229,0.0079 -0.434,1.3346 -0.933,-0.0717 -1.356,5.6978 -0.208,3.8193 2.142,0.031 0.35,2.063 -0.065,4.039 0.204,0.924 0.017,4.16 0.56,0.857 2.554,0.544 0.878,1.214 1.091,-0.222 h 3.421 l 4.398,0.741 z"
         id="15"
         inkscape:connector-curvature="0"
         inkscape:label="#polygon56" />
      <path
         style="clip-rule:evenodd;fill:#b0b03b;fill-rule:evenodd;stroke:#666666;stroke-width:0.40000001;stroke-linejoin:bevel;image-rendering:optimizeQuality;shape-rendering:geometricPrecision;text-rendering:geometricPrecision"
         d="m 151.863,90.9453 -7.467,2.6601 1.201,35.3556 1.727,-0.666 0.269,5.12 0.108,6.582 0.038,2.304 -0.208,4.541 -2.618,1.008 -1.738,2.42 0.951,0.124 0.697,0.434 h 0.436 l 0.176,-0.734 0.401,-0.633 0.347,-0.472 0.656,-0.605 0.323,-0.086 0.249,0.048 0.157,0.179 0.051,0.271 -0.112,0.252 -0.282,0.402 -0.082,0.588 0.253,0.484 -0.473,0.59 v 0.973 l -0.449,1.146 v 1.349 l -0.714,0.933 -1,0.841 -1.006,0.18 -0.721,1.285 v 0.48 l -0.286,0.572 -0.077,1.068 v 0.719 l 0.292,0.335 0.356,0.067 0.093,-1.005 0.315,-1.075 0.345,-0.568 0.596,-0.407 h 0.62 l 0.645,0.26 0.934,0.32 1.019,0.301 0.556,0.545 0.209,0.823 -0.151,1.305 0.468,0.748 0.14,1.052 0.514,0.374 0.42,-0.222 -0.152,-0.701 0.229,-0.982 0.267,-0.778 0.095,-0.941 -0.134,-1.009 -0.088,-1.087 0.22,-0.668 1.054,-1.577 -0.085,-0.696 0.422,-0.573 0.407,-0.969 -0.1,-1.077 0.338,-0.67 0.851,0.202 0.829,0.775 0.721,0.138 0.728,0.659 0.337,-0.068 0.38,-0.291 0.59,0.057 0.515,-0.838 0.174,-0.646 0.108,-1.023 0.101,-0.572 0.255,0.256 0.1,0.645 0.172,0.623 0.133,1.47 0.372,0.69 0.319,0.273 0.387,-0.243 0.287,-0.707 0.419,-0.685 0.552,-0.342 0.4,0.585 0.599,0.668 1.021,-0.246 0.3,-0.266 -0.1,-1.13 0.469,-0.594 0.583,-0.081 0.136,-0.826 -0.433,-1.413 0.304,-0.484 -0.395,-0.686 -0.425,-0.069 -0.581,-0.307 -0.496,-0.725 -0.12,-1.04 -1.59,-0.425 -0.199,-0.682 0.333,-0.344 0.284,-0.213 0.756,-0.206 0.967,-0.056 1.148,0.105 v -1.002 l 0.686,-0.371 0.614,0.365 -0.276,0.948 0.612,0.316 0.848,-0.771 0.729,0.506 v 1.225 l -0.515,0.976 1.126,0.588 0.394,-0.698 h 0.393 v 0.788 l 0.483,0.268 0.859,-1.002 1.529,0.667 -0.987,1.153 1.177,0.202 0.156,0.778 -0.839,0.78 0.648,4.162 -0.202,0.842 -0.469,1.152 0.306,1.629 0.798,-0.134 0.741,-0.651 0.562,-0.399 0.68,-0.662 0.136,-0.88 1.082,-0.611 0.468,-0.821 -0.079,-1.603 0.608,-0.711 -0.193,-0.832 -0.4,-0.947 -0.062,-0.791 0.432,-0.506 0.882,-0.12 0.585,-0.577 -0.087,-2.054 1.108,-1.143 0.537,-0.179 0.531,-0.495 1.003,0.294 0.694,-0.744 0.308,-1.006 0.994,-0.09 0.741,0.391 0.602,-0.628 h 1.662 l 0.502,0.361 0.549,0.327 0.574,0.556 0.474,0.074 0.307,-0.315 0.441,-0.905 2.252,-2.391 h 0.782 l 0.409,-0.298 0.318,-0.56 0.396,0.611 1.009,1.793 0.182,0.232 0.341,0.088 0.42,-0.334 1.268,-2.119 0.285,-0.475 0.43,-0.114 0.562,0.518 0.77,0.946 -0.458,0.688 -0.109,0.634 0.185,0.94 -0.078,1.177 0.524,1.626 0.102,0.656 0.465,-0.841 0.144,-1.508 0.537,-0.909 1.033,-0.91 0.317,-0.813 0.564,-0.771 1.744,-0.853 0.219,-0.369 -0.232,-0.424 -1.132,-0.711 -0.165,-0.86 0.204,-0.792 0.342,-0.465 0.715,0.057 1.586,-1.178 0.43,-0.195 0.687,0.074 0.538,-0.096 0.368,-0.473 -0.293,-0.643 v -0.491 l 0.37,-0.314 0.465,-0.096 -0.132,-0.624 -0.335,-0.587 0.225,-0.644 0.069,-1.006 -0.108,-1.373 0.446,-0.881 0.559,-0.529 -0.617,-0.226 -3.204,2.39 -0.972,-1.294 -0.644,0.416 -0.29,-1.559 -2.015,1.351 -0.222,-1.687 -1.062,-0.978 -1.517,0.936 -4.807,-0.146 -1.163,0.184 -0.601,-0.462 0.468,-1.068 -0.614,-2.063 -0.76,-0.775 1.796,-1.083 -1.141,-0.088 -20.194,-4.099 -4.398,-0.741 h -3.421 l -1.091,0.222 -0.878,-1.214 -2.554,-0.544 -0.56,-0.857 -0.017,-4.16 -0.204,-0.924 0.065,-4.039 -0.35,-2.063 -2.142,-0.031 0.208,-3.8193 1.356,-5.6978 0.933,0.0717 0.434,-1.3346 -2.681,0.0924 -1.679,0.1558 z"
         id="16"
         inkscape:connector-curvature="0"
         inkscape:label="#polygon58" />
      <path
         style="clip-rule:evenodd;fill:#cc9933;fill-rule:evenodd;stroke:#666666;stroke-width:0.40000001;stroke-linejoin:bevel;image-rendering:optimizeQuality;shape-rendering:geometricPrecision;text-rendering:geometricPrecision"
         d="m 82.6743,92.4288 1.4368,-1.4631 1.0083,-1.5136 -1.7393,-1.7784 -1.8158,1.8607 -0.9857,-1.5131 -1.0201,-0.1235 0.5276,-2.0723 v -0.8867 l -0.6144,0.0413 -0.4171,1.1499 0.2107,0.6715 -1.6241,1.9918 0.0787,1.1215 -1.9697,1.8816 0.1647,0.7926 -0.8151,0.7251 -0.2406,1.3699 -1.7234,2.8933 -0.4484,2.8697 -1.4761,2.708 -0.8453,0.457 h -1.1801 v 0.806 l -1.0013,0.662 -0.6794,1.324 -1.3925,1.297 -1.0929,-0.501 -1.9411,-0.155 -0.848,-1.568 -0.8132,-0.788 -1.3723,1.704 -0.1686,1.252 -0.7257,0.861 -0.8667,-0.011 -0.8472,0.645 v 0.679 l 0.4784,0.244 0.4546,0.808 -0.4521,0.62 -1.3828,1.202 -1.3157,0.686 v 0.787 l 0.9421,1.006 0.1143,0.637 -0.7478,1.045 1.0725,0.376 -0.1129,1.121 0.3972,0.332 0.0798,0.666 -0.2621,1.044 0.2165,1.462 1.2959,0.138 v 1.133 l 0.341,0.628 h 0.9004 l 0.6318,0.234 0.8946,0.584 0.5577,0.81 v 2.39 l 0.9398,0.284 0.3215,0.805 -0.371,0.396 v 0.445 l 0.4081,0.495 v 1.263 l 0.939,0.947 0.2227,0.689 -0.2921,2.155 -0.3101,0.547 -0.7691,0.849 -0.9522,0.334 -1.9688,1.788 H 58.876 l -0.5491,0.374 0.3706,1.027 -0.2494,0.399 0.4419,0.92 -0.107,0.615 1.9789,1.892 v 0.27 l -0.288,0.483 0.1672,0.307 0.8517,0.188 -0.3108,0.643 0.1593,0.235 1.1899,0.141 0.744,0.454 1.3413,1.726 1.4914,1.152 1.3238,1.379 0.6709,1.6 0.3785,0.33 0.4317,0.078 0.8424,-0.109 0.4252,0.208 0.9564,0.958 0.5962,1.23 0.403,1.094 0.303,1.388 -0.148,3.463 0.0815,1.366 0.2843,0.656 0.474,0.41 0.6473,0.512 0.6642,0.887 0.5011,1.082 0.3199,1.226 h 1.6303 l 1.2719,-0.298 1.7637,-0.777 1.0189,0.398 0.3072,0.287 0.6326,-0.959 0.5963,-0.958 0.9686,-0.182 0.8858,-1.026 0.1809,-0.643 -0.0831,-0.961 3.7707,0.95 0.8618,-1.1 1.2529,-1.214 0.9522,-1.324 0.2164,-0.486 v -0.657 l 0.7213,-0.215 2.0401,0.338 1.1523,0.436 0.387,0.201 h 0.2161 l 0.1206,-0.231 -0.0515,-0.668 -0.2085,-0.938 -0.1518,-0.948 -0.224,-0.614 -0.1054,-0.578 -0.1364,-1.426 -0.5746,-0.699 0.3417,-3.326 -2.5686,-4.213 0.4198,-3.229 -2.7617,-1.238 -4.0262,-0.203 0.4872,-1.358 -0.3574,-1.306 2.1602,-3.468 v -0.716 l -1.1034,-0.638 1.8515,-3.645 0.1487,-2.264 1.2562,-0.869 0.4091,-2.062 1.2448,-1.274 v -2.138 l 1.6134,-1.891 1.097,-0.996 1.6379,-0.781 1.6589,-1.507 2.7233,-2.637 1.545,-2.234 1.152,-2.069 0.985,-1.248 0.859,-0.738 1.69,-0.443 1.29,-1.543 1.612,-0.594 1.26,-2.225 1.641,-2.2465 0.965,-3.8936 0.106,-2.5636 -0.219,-1.5428 -0.988,-3.6281 -1.172,-0.6439 -4.569,-1.8492 -3.034,-0.6192 -0.522,3.7714 -1.772,3.3534 -1.8682,-0.2876 -2.7127,-1.2582 -4.4855,5.9696 -1.5563,0.0543 -2.0658,-1.701 -1.099,-0.2244 -0.7947,0.1713 -1.0248,-1.0407 -0.9833,0.8957 z"
         id="7"
         inkscape:connector-curvature="0"
         inkscape:label="#polygon60" />
      <path
         style="clip-rule:evenodd;fill:#ba8c2f;fill-rule:evenodd;stroke:#666666;stroke-width:0.40000001;stroke-linejoin:bevel;image-rendering:optimizeQuality;shape-rendering:geometricPrecision;text-rendering:geometricPrecision"
         d="M 58.715,69.6803 58.1999,69.0162 57.605,67.9163 56.9674,66.8851 56.2989,66.0589 55.625,65.5602 53.9913,65.1234 53.0841,64.7735 50.2613,63.2753 48.4502,62.8327 45.5488,61.6205 43.7181,61.1663 41.9964,61.289 39.2937,61.5942 36.1935,61.4993 34.6473,61.9237 33.8643,61.89 33.2239,61.5857 30.9762,59.82 l -1.0429,1.7081 -0.2193,0.6832 0.5076,9.8678 -1.1651,2.2388 -0.3269,1.1785 0.3183,1.2289 0.7731,0.8647 -0.0876,1.2722 2.1668,1.9346 0.3744,2.5901 3.6928,0.8553 4.248,0.1566 0.1234,-0.7573 1.2542,-0.019 -0.0111,-3.8626 0.0111,-0.0023 2.8001,-0.5686 4.3461,2.1091 -0.2649,0.673 1.9194,0.7772 -0.2638,1.9828 1.2042,1.0512 1.3403,-0.4778 1.0993,0.862 13.8368,4.4044 -1.0445,3.7167 3.7545,1.4631 2.8153,1.8266 1.7234,-2.8933 0.2406,-1.3699 0.8151,-0.7251 -0.1647,-0.7926 1.9697,-1.8816 -0.0787,-1.1215 1.6241,-1.9918 -0.2107,-0.6715 0.4171,-1.1499 0.6144,-0.0413 v 0.8867 l -0.5276,2.0723 1.0201,0.1235 0.9857,1.5131 1.8158,-1.8607 1.7393,1.7784 -1.0083,1.5136 -1.4368,1.4631 2.4724,2.4961 0.9833,-0.8957 1.0248,1.0407 0.7947,-0.1713 1.099,0.2244 2.0658,1.701 1.5563,-0.0543 4.4855,-5.9696 2.7127,1.2582 1.8682,0.2876 1.772,-3.3534 0.522,-3.7714 L 78.9817,79.2185 78.2968,79.1606 76.0346,79.0104 75.3881,78.884 74.7787,78.6311 74.3191,78.2601 72.8293,76.461 72.12,75.6985 71.3276,75.1962 70.0969,74.8996 67.8702,74.6915 67.0221,74.5324 66.0956,74.1628 65.1628,73.463 64.3576,72.4613 63.5871,71.6804 62.6385,71.1368 59.9614,70.4835 59.2527,70.1476 Z"
         id="5"
         inkscape:connector-curvature="0"
         inkscape:label="#polygon62" />
      <path
         style="clip-rule:evenodd;fill:#dba538;fill-rule:evenodd;stroke:#666666;stroke-width:0.40000001;stroke-linejoin:bevel;image-rendering:optimizeQuality;shape-rendering:geometricPrecision;text-rendering:geometricPrecision"
         d="m 31.3483,91.0462 0.8339,1.037 0.3791,2.7315 1.9767,4.1557 -0.4644,2.5376 0.1952,2.655 -0.6006,1.104 0.7532,1.419 h 1.1249 l 0.9513,0.77 0.4571,0.115 1.2984,-1.56 0.4565,-0.297 1.206,0.184 0.8107,-1.291 0.8207,-1.736 1.3502,-0.278 1.077,0.241 0.9237,0.371 0.1069,0.614 -0.2405,1.034 0.1603,0.941 0.3956,0.535 0.7173,0.39 h 2.2772 l 0.5736,-0.471 0.9413,0.113 0.8329,0.833 2.034,0.251 0.5095,-0.659 0.6147,-0.109 0.8789,0.795 1.1339,0.184 0.3827,0.951 0.6804,0.936 0.5404,0.276 v -0.679 l 0.8472,-0.645 0.8667,0.011 0.7257,-0.861 0.1686,-1.252 1.3723,-1.704 0.8132,0.788 0.848,1.568 1.9411,0.155 1.0929,0.501 1.3925,-1.297 0.6794,-1.324 1.0013,-0.662 v -0.806 h 1.1801 l 0.8453,-0.457 1.4761,-2.708 0.4484,-2.8697 -2.8153,-1.8266 -3.7545,-1.4631 1.0445,-3.7167 -13.8368,-4.4044 -1.0993,-0.862 -1.3403,0.4778 -1.2042,-1.0512 0.2638,-1.9828 -1.9194,-0.7772 0.2649,-0.673 -4.3461,-2.1091 -2.8001,0.5686 v 3.8649 l -1.2542,0.019 -0.1234,0.7573 -4.248,-0.1566 -3.6928,-0.8553 -0.4291,6.0975 z"
         id="6"
         inkscape:connector-curvature="0"
         inkscape:label="#polygon64" />
      <g
         id="agua">
        <metadata
           id="CorelCorpID_3Corel-Layer" />
        <polyline
           id="polyline689"
           points="229.487,103.223 216.755,99.8416 207.027,96.6881 157.549,89.9338 154.628,90.0143 153.057,90.1551 151.936,90.4243 132.48,97.3554 131.269,97.6044 130.165,97.3909 111.333,87.0499 106.978,85.2953 79.4284,78.8629 78.7485,78.7542 75.9471,78.6578 75.3065,78.5111 74.7326,78.2177 74.5057,77.991 73.1773,76.3497 72.3559,75.462 71.6686,75.0265 71.0148,74.7585 70.361,74.6077 66.9447,74.1402 66.3508,73.9119 65.6883,73.4897 65.1972,73.0218 64.0208,71.6066 63.4725,71.1387 62.7644,70.7964 59.991,70.1123 59.2589,69.7297 58.7858,69.2795 58.5155,68.9193 58.1325,68.2328 57.4004,66.8935 56.5952,65.8486 56.06,65.3732 55.3959,65.0959 54.1768,64.8384 53.0789,64.4063 50.2173,62.9063 48.4034,62.4376 45.5337,61.2361 43.7294,60.7584 42.1564,60.82 39.2418,61.1898 36.1118,61.0691 34.6841,61.4949 33.9276,61.4949 33.2671,61.1755 29.3447,57.7988 "
           class="fil0 str2"
           style="fill:none;stroke:#0000ff;stroke-width:1.39999998;stroke-linejoin:bevel" />
      </g>
    </g>
    <g
       transform="translate(297.10377,12.47659)"
       id="urbano_x0020_corregimiento"
       style="clip-rule:evenodd;fill-rule:evenodd;image-rendering:optimizeQuality;shape-rendering:geometricPrecision;text-rendering:geometricPrecision">
      <metadata
         id="CorelCorpID_2Corel-Layer" />
    </g>
  </g>
</svg>
